<svg xmlns:xlink="http://www.w3.org/1999/xlink" xmlns="http://www.w3.org/2000/svg" width="554" height="51" viewBox="0 0 554 51" fill="none">
<g clip-path="url(#clip0_2365_12315)">
<path d="M552.427 14.8195C539.224 12.4067 523.525 9.08923 492.755 10.2748C447.839 12.3859 423.614 23.108 396.358 36.898C379.59 45.2697 361.688 53.5998 341.27 47.1416C333.667 44.3649 330.028 42.3058 318.324 36.5548C298.053 26.8415 296.794 29.847 281.599 26.5503C266.623 22.8168 256.367 17.1282 237.993 10.1292C217.25 2.49584 204.256 0.384708 182.905 4.80457C162.214 9.57802 148.56 18.4177 123.233 23.5344C83.3092 30.8557 54.1342 18.6777 26.8364 15.4122C17.0729 14.4035 11.5253 14.3931 1.58355 14.8195" stroke="#02FEDF" stroke-width="3" stroke-linecap="round" stroke-linejoin="round" class="svg-elem-1"></path>
<path d="M552.427 14.8402C524.615 11.9803 520.169 13.3842 488.162 13.8418C459.04 14.185 443.382 13.249 423.898 16.5769C406.279 19.936 401.906 23.8359 384.875 28.5261C357.871 35.3275 345.066 29.0877 325.193 21.0176C295.232 8.98516 298.986 15.7033 270.105 12.469C253.881 10.4515 243.94 7.91399 226.5 5.74046C169.23 -0.852933 158.575 23.0143 111.74 27.2574C72.4971 30.0341 51.1873 16.8369 17.6392 14.8714C11.2002 14.601 8.06455 14.6738 1.57306 14.8714" stroke="#5670E1" stroke-width="3" stroke-linecap="round" stroke-linejoin="round" class="svg-elem-2"></path>
<path d="M552.427 14.7777C511.255 14.6842 499.111 13.2178 485.866 10.9507C455.275 5.42844 419.42 -7.63355 387.172 12.0218C364.971 26.2902 350.708 42.4201 327.49 39.6538C304.219 35.4419 284.965 12.9786 260.929 6.46841C244.967 3.04692 234.323 8.54834 224.203 14.5178C197.891 30.8036 190.539 41.5569 164.532 36.5963C143.547 31.906 127.785 21.7247 102.563 16.5457C86.3924 13.561 78.7159 14.5594 63.5411 15.2249C41.4973 16.0257 22.4318 14.8297 1.57306 14.7881" stroke="#FD87B3" stroke-width="3" stroke-linecap="round" stroke-linejoin="round" class="svg-elem-3"></path>
<path d="M552.427 14.7987C528.191 14.7987 542.58 14.9027 522.591 13.9147C504.826 13.1556 495.325 14.1747 462.909 10.2437C439.555 7.35255 420.636 4.58624 400.941 10.1397C378.635 17.4298 363.324 33.0085 338.973 37.262C306.526 41.5675 286.559 17.7002 244.862 24.2208C221.078 28.5471 206.05 38.4164 185.191 39.2691C170.572 39.2171 158.501 33.6325 141.586 26.6335C92.9468 6.77017 85.2808 15.3291 31.4088 15.1523C15.437 15.0171 28.0214 14.7987 1.57306 14.7987" stroke="#A72EE7" stroke-width="3" stroke-linecap="round" stroke-linejoin="round" class="svg-elem-4"></path>
</g>
<defs>
<clipPath id="clip0_2365_12315">
<rect width="554" height="51" fill="white" class="svg-elem-5"></rect>
</clipPath>
</defs>
</svg>